<?xml version="1.0" encoding="utf-8"?>
<!-- Generator: Adobe Illustrator 22.0.0, SVG Export Plug-In . SVG Version: 6.00 Build 0)  -->
<svg version="1.1" id="Layer_1" xmlns="http://www.w3.org/2000/svg" xmlns:xlink="http://www.w3.org/1999/xlink" x="0px" y="0px"
	 viewBox="0 0 216 145" style="enable-background:new 0 0 216 145;" xml:space="preserve">
<style type="text/css">
	.st0{fill:#F9F9F9;}
</style>
<circle class="st0" cx="9.6" cy="72" r="0.6"/>
<circle class="st0" cx="9.6" cy="76.8" r="0.6"/>
<circle class="st0" cx="19.2" cy="67.2" r="0.6"/>
<circle class="st0" cx="28.8" cy="62.4" r="0.6"/>
<circle class="st0" cx="28.8" cy="67.2" r="0.6"/>
<circle class="st0" cx="28.8" cy="72" r="0.6"/>
<circle class="st0" cx="19.2" cy="72" r="0.6"/>
<circle class="st0" cx="19.2" cy="76.8" r="0.6"/>
<circle class="st0" cx="19.2" cy="81.6" r="0.6"/>
<circle class="st0" cx="9.6" cy="81.6" r="0.6"/>
<circle class="st0" cx="9.6" cy="86.4" r="0.6"/>
<circle class="st0" cx="9.6" cy="91.2" r="0.6"/>
<circle class="st0" cx="38.4" cy="57.6" r="0.6"/>
<circle class="st0" cx="38.4" cy="62.4" r="0.6"/>
<circle class="st0" cx="38.4" cy="67.2" r="0.6"/>
<circle class="st0" cx="19.2" cy="86.4" r="0.6"/>
<circle class="st0" cx="28.8" cy="81.6" r="0.6"/>
<circle class="st0" cx="28.8" cy="76.8" r="0.6"/>
<circle class="st0" cx="38.4" cy="72" r="0.6"/>
<circle class="st0" cx="38.4" cy="76.8" r="0.6"/>
<circle class="st0" cx="48" cy="52.8" r="0.6"/>
<circle class="st0" cx="48" cy="57.6" r="0.6"/>
<circle class="st0" cx="48" cy="62.4" r="0.6"/>
<circle class="st0" cx="48" cy="67.2" r="0.6"/>
<circle class="st0" cx="48" cy="72" r="0.6"/>
<circle class="st0" cx="9.6" cy="72" r="0.6"/>
<circle class="st0" cx="9.6" cy="76.8" r="0.6"/>
<circle class="st0" cx="19.2" cy="67.2" r="0.6"/>
<circle class="st0" cx="28.8" cy="62.4" r="0.6"/>
<circle class="st0" cx="28.8" cy="67.2" r="0.6"/>
<circle class="st0" cx="28.8" cy="72" r="0.6"/>
<circle class="st0" cx="19.2" cy="72" r="0.6"/>
<circle class="st0" cx="19.2" cy="76.8" r="0.6"/>
<circle class="st0" cx="19.2" cy="81.6" r="0.6"/>
<circle class="st0" cx="9.6" cy="81.6" r="0.6"/>
<circle class="st0" cx="9.6" cy="86.4" r="0.6"/>
<circle class="st0" cx="9.6" cy="91.2" r="0.6"/>
<circle class="st0" cx="38.4" cy="57.6" r="0.6"/>
<circle class="st0" cx="38.4" cy="62.4" r="0.6"/>
<circle class="st0" cx="38.4" cy="67.2" r="0.6"/>
<circle class="st0" cx="19.2" cy="86.4" r="0.6"/>
<circle class="st0" cx="28.8" cy="81.6" r="0.6"/>
<circle class="st0" cx="28.8" cy="76.8" r="0.6"/>
<circle class="st0" cx="38.4" cy="72" r="0.6"/>
<circle class="st0" cx="38.4" cy="76.8" r="0.6"/>
<circle class="st0" cx="48" cy="52.8" r="0.6"/>
<circle class="st0" cx="48" cy="57.6" r="0.6"/>
<circle class="st0" cx="48" cy="62.4" r="0.6"/>
<circle class="st0" cx="48" cy="67.2" r="0.6"/>
<circle class="st0" cx="48" cy="72" r="0.6"/>
<circle class="st0" cx="144" cy="110.4" r="0.6"/>
<circle class="st0" cx="144" cy="115.2" r="0.6"/>
<circle class="st0" cx="134.4" cy="105.6" r="0.6"/>
<circle class="st0" cx="124.8" cy="100.8" r="0.6"/>
<circle class="st0" cx="124.8" cy="105.6" r="0.6"/>
<circle class="st0" cx="124.8" cy="110.4" r="0.6"/>
<circle class="st0" cx="134.4" cy="110.4" r="0.6"/>
<circle class="st0" cx="134.4" cy="115.2" r="0.6"/>
<circle class="st0" cx="134.4" cy="120" r="0.6"/>
<circle class="st0" cx="144" cy="120" r="0.6"/>
<circle class="st0" cx="144" cy="124.8" r="0.6"/>
<circle class="st0" cx="144" cy="129.6" r="0.6"/>
<circle class="st0" cx="115.2" cy="96" r="0.6"/>
<circle class="st0" cx="115.2" cy="100.8" r="0.6"/>
<circle class="st0" cx="115.2" cy="105.6" r="0.6"/>
<circle class="st0" cx="134.4" cy="124.8" r="0.6"/>
<circle class="st0" cx="124.8" cy="120" r="0.6"/>
<circle class="st0" cx="124.8" cy="115.2" r="0.6"/>
<circle class="st0" cx="115.2" cy="110.4" r="0.6"/>
<circle class="st0" cx="115.2" cy="115.2" r="0.6"/>
<circle class="st0" cx="105.6" cy="91.2" r="0.6"/>
<circle class="st0" cx="105.6" cy="96" r="0.6"/>
<circle class="st0" cx="105.6" cy="100.8" r="0.6"/>
<circle class="st0" cx="105.6" cy="105.6" r="0.6"/>
<circle class="st0" cx="105.6" cy="110.4" r="0.6"/>
<circle class="st0" cx="134.4" cy="129.6" r="0.6"/>
<circle class="st0" cx="124.8" cy="129.6" r="0.6"/>
<circle class="st0" cx="115.2" cy="129.6" r="0.6"/>
<circle class="st0" cx="105.6" cy="129.6" r="0.6"/>
<circle class="st0" cx="105.6" cy="124.8" r="0.6"/>
<circle class="st0" cx="105.6" cy="120" r="0.6"/>
<circle class="st0" cx="105.6" cy="115.2" r="0.6"/>
<circle class="st0" cx="115.2" cy="120" r="0.6"/>
<circle class="st0" cx="115.2" cy="124.8" r="0.6"/>
<circle class="st0" cx="124.8" cy="124.8" r="0.6"/>
</svg>
