<svg id="Layer_1" xmlns="http://www.w3.org/2000/svg" viewBox="0 0 216 76"><style>.st0{fill:#282b35}</style><path class="st0" d="M78.4 3.4H34.7c-11.6 0-22.9 9.4-25.4 20.9L3.4 52.2C1 63.6 8.3 72.9 19.7 72.9H82.4l1-4.6c-7.2 0-12.5-4.1-14.3-10.1-.7-2.3-2.6-3.8-5.2-3.8H32.3c-3.4 0-5.5-2.7-4.8-6.1.4-1.7 2.1-3.2 3.8-3.2H49c10.7 0 21.3-8.1 24.7-18.5h.1C75.9 16.3 86 8 96.2 8l1-4.6H78.4zM51 31.2H34.3c-1.8 0-2.9-1.4-2.5-3.2.7-3.3 4-6.1 7.3-6.1h11.1c3.3 0 5.5 2.7 4.8 6.1-.5 1.7-2.2 3.2-4 3.2zM207.5 68.3c-2 0-3.2-1.6-2.8-3.6l.2-1.1 7-32.7c3.2-15.2-6.5-27.5-21.7-27.5h-60.5l-1 4.6c10.2 0 16.8 8.3 14.6 18.5l-4.9 23.2c-2.2 10.2-12.2 18.5-22.5 18.5l-1 4.6H161.2l1-4.6h-1.1c-2 0-3.2-1.6-2.8-3.6l.2-1.1 7.1-33.6c.4-1.9 2.3-3.5 4.2-3.5h12.7c3.9 0 6.3 3.1 5.5 7l-6.4 30.1-.2 1.1c-.4 2-2.4 3.6-4.3 3.6H176l-1 4.6H207.3l1-4.6h-.8zM111.2 31.2h-7.3c-1.8 0-3.6 1.5-4 3.3l-1.5 7.3c-.4 1.8.8 3.3 2.6 3.3h7.3c1.8 0 3.6-1.5 4-3.3l1.5-7.3c.4-1.8-.8-3.3-2.6-3.3z"/></svg>